<?xml version="1.0" encoding="UTF-8"?><svg xmlns="http://www.w3.org/2000/svg" viewBox="0 0 260.04 77.63"><defs><style>.d{fill:#f9d606;}.e{fill:#fff;font-family:TsukuBRdGothicStd-B-90ms-RKSJ-H, FOT-TsukuBRdGothic Std;font-size:20px;letter-spacing:.1em;}</style></defs><g id="a"/><g id="b"><g id="c"><g><polygon class="d" points="142.35 26.36 146.07 6.25 136.95 16.89 130.53 6.25 124.11 16.89 114.98 6.25 118.7 26.36 142.35 26.36"/><rect class="d" x="118.95" y="27.88" width="23.15" height="4.22"/><circle class="d" cx="113.97" cy="3.72" r="1.86"/><circle class="d" cx="146.07" cy="3.72" r="1.86"/><circle class="d" cx="130.53" cy="1.86" r="1.86"/></g><path class="d" d="M254.04,77.63H6c0-3.31-2.69-6-6-6v-26.41c3.31,0,6-2.69,6-6H254.04c0,3.31,2.69,6,6,6v26.41c-3.31,0-6,2.69-6,6Z"/><text class="e" transform="translate(88.59 65.95)"><tspan x="0" y="0">最優秀賞</tspan></text></g></g></svg>