<svg xmlns="http://www.w3.org/2000/svg" viewBox="0 0 53.18 84.75"><defs><style>.cls-1{fill:#7bccd4;}</style></defs><g id="レイヤー_2" data-name="レイヤー 2"><g id="レイヤー_1-2" data-name="レイヤー 1"><path class="cls-1" d="M18.6,7.07A22.92,22.92,0,0,1,35.76,0C47.29,0,53.18,8.51,53.18,16c0,9.83-7.2,14.67-15.72,19.52C46.11,38,53.05,44.41,53.05,54c0,17.42-21.09,30.78-37.33,30.78-9.3,0-15.72-5.5-15.72-9,0-2.89,2.88-6,4.72-6,1,0,2.09.79,3.53,2C13,76,17,78.47,22.66,78.47c10.61,0,18.73-6.68,18.73-20.44.14-11.26-6.68-16.37-14.67-16.37A27.25,27.25,0,0,0,19,42.84l-.65-3.67C33.54,35,42.31,29,42.31,19c0-6.81-3.8-11.13-10.87-11.13-7.47,0-13,5-16.64,9.69l-2.75-2.88Z"/></g></g></svg>