<?xml version="1.0" encoding="UTF-8"?><svg id="_イヤー_2" xmlns="http://www.w3.org/2000/svg" viewBox="0 0 80 80"><defs><style>.cls-1{fill:#fff;}.cls-2{fill:#f9d606;}.cls-3{fill:none;stroke:#fff;stroke-miterlimit:10;stroke-width:.5px;}</style></defs><g id="_イヤー_1-2"><g><circle class="cls-2" cx="40" cy="40" r="40"/><g><g><path class="cls-1" d="M16.18,41.86c-.02,.53,.21,.79,.87,.88,.63,.08,2.31,0,3.03-.39,.97-.52,1.67,.63,.41,1.19-.93,.41-2.71,.44-3.85,.3-.97-.12-1.57-.75-1.54-1.65,.02-1.1,.07-1.97,.12-3.27,.03-.78-.03-1.16-.07-1.4-.11-.87,1.18-1.06,1.24-.04,.03,.59-.01,.82-.04,1.39-.01,.28-.03,.53-.04,.77,.62-.12,1.24-.29,2.03-.59,.31-.12,.69-.29,.96-.52,.59-.5,1.58,.24,.96,.9-.26,.28-.97,.52-1.13,.58-.99,.33-1.83,.62-2.88,.78-.02,.34-.03,.69-.06,1.09Zm5.15-3.39c-.64,0-1.16-.51-1.16-1.16s.51-1.17,1.16-1.17,1.17,.52,1.17,1.17-.52,1.16-1.17,1.16Zm0-1.72c-.31,0-.55,.26-.55,.57s.24,.56,.55,.56,.57-.24,.57-.56-.25-.57-.57-.57Z"/><path class="cls-1" d="M26.12,40.86c-.77,.51-1.42-.5-.64-.97,1.08-.66,1.89-1.77,2.41-2.58,.19-.29,.36-.63,.43-.91,.2-.74,1.31-.54,1.19,.19-.02,.16-.09,.32-.17,.49,.53-.09,1.11-.22,1.61-.26,.78-.04,1.47,.5,1.04,1.22-1.79,3.07-3.41,5.21-6.41,6.38-.96,.37-1.39-.77-.44-1.08,2.34-.79,4.17-2.79,5.44-5.2,.11-.22,.01-.27-.16-.27-.44,.01-1.33,.2-1.78,.28-.67,.92-1.55,2.03-2.53,2.7Z"/><path class="cls-1" d="M41.15,40.19c-.16,1.59-1.54,3.51-3.64,4.33-1.08,.42-1.3-.81-.52-1.06,1.77-.56,2.89-2.19,2.99-3.32,.01-.17-.01-.34-.13-.51-.04-.06-.06-.11-.08-.17-.68,.08-1.31,.17-1.8,.22-.63,.07-1.02,.19-1.38,.21-.73,.03-.87-1.06-.01-1.12,.4-.03,.91-.02,1.4-.08,.84-.09,2.71-.3,3.87-.4,.68-.06,1.04-.17,1.58-.09,.5,.07,.69,.23,.68,.56-.01,.28-.26,.54-.73,.54-.68-.01-1.28-.04-1.91,0-.12,.01-.24,.01-.38,.02,.12,.23,.11,.57,.08,.85Zm-.17-2.84c-.66,.04-1.28,.11-1.78,.17s-.83,.11-1.31,.1c-.71-.01-.89-1.03,0-1.07,.39-.01,.7,.02,1.1-.02,.53-.06,1.3-.13,1.97-.2,.2-.02,.36-.07,.51-.1,.17-.03,.33-.08,.54-.07,.84,.03,1.02,1.06-.02,1.12-.37,.02-.64,.04-1.01,.07Z"/><path class="cls-1" d="M51.04,41.36c-.58,.58-1.19,1.07-1.96,1.53-.83,.51-1.32-.47-.68-.78,1.26-.62,3.02-2.21,3.51-3.59,.2-.58,1.28-.27,.96,.42-.13,.28-.2,.42-.39,.69-.2,.27-.39,.52-.59,.77,.02,.03,.03,.06,.04,.09,.07,.19,.07,.28,.04,.8-.03,.61-.02,1.78,0,2.62,.01,.41-.26,.58-.5,.61-.27,.03-.5-.17-.5-.56,.01-.83,.09-1.86,.06-2.6h0Z"/><path class="cls-1" d="M59.3,44.43c-.97,.58-1.76-.53-.74-1.04,1.64-.82,2.4-2.09,2.64-3.47,.06-.33,.06-.73,0-1.01-.13-.69,1.12-.93,1.28-.11,.02,.11,.02,.28,.02,.46,.67-.32,1.49-.91,1.9-1.48,.19-.26,.22-.39-.2-.37-1.4,.06-3.19,.3-3.69,.37-.6,.08-.9,.17-1.52,.14-.72-.02-.86-1.18,.08-1.16,.48,.01,1-.06,1.47-.09,.49-.03,2.34-.21,4.13-.31,1.24-.07,1.72,.87,.93,1.79-.71,.83-1.66,1.71-2.79,2.13-.17,.07-.33,.07-.47,.01-.42,1.72-1.28,3.07-3.04,4.13Z"/><path class="cls-1" d="M20.74,57.77c-.31,0-.51-.26-.51-.51,0-.19,.1-.38,.36-.48,.38-.14,.87-.37,1.37-.59,.74-.33,1.69-.74,2.57-.74,1.28,0,2.01,.92,2.01,1.8,0,1.89-3.3,2.88-4.05,2.88-.34,0-.54-.26-.54-.51,0-.21,.14-.42,.46-.47,1.86-.26,3.11-1.13,3.11-1.93,0-.27-.25-.89-1.04-.89-.54,0-1.25,.3-2.16,.74-1.18,.62-1.37,.7-1.55,.7Z"/><path class="cls-1" d="M36.75,60.22h-.11c-2.41-.22-3.93-1.89-3.93-3.6,0-.43,.1-1.19,.8-2.03,.03-.04,.06-.08,.06-.1,0-.01-.01-.02-.02-.02-.02,0-.07,.02-.11,.04-1.74,.9-1.96,.97-2.2,.97-.41,0-.68-.29-.68-.6,0-.22,.16-.47,.51-.58,.23-.08,.87-.27,1.2-.39,.52-.19,1.44-.48,2.54-.91,.82-.32,1.91-.69,2.94-.69,.56,0,.76,.26,.76,.54,0,.57-.47,.69-.89,.69-.08,0-.17,0-.26-.01-.09-.01-.18-.01-.27-.01-1.72,0-3.41,1.47-3.41,2.95,0,1.33,1.27,2.47,3.01,2.47,.56,0,.82,.32,.82,.66,0,.31-.25,.62-.77,.62Z"/><path class="cls-1" d="M44.83,57.57c0-1.41,1.46-2.06,1.86-2.79,.17-.3,.24-.62,.24-.91,0-1.09-.82-1.34-1.27-1.34-.89,0-1.25,.73-1.34,1.03-.06,.22-.31,.33-.57,.33-.3,0-.61-.17-.61-.53,0-.41,.68-1.94,2.51-1.94,1.31,0,2.44,.91,2.44,2.43,0,.36-.08,.74-.22,1.11-.4,1-1.86,1.57-1.86,2.58,0,.42-.32,.64-.62,.64s-.57-.2-.57-.61Zm.6,2.91c-.42,0-.77-.36-.77-.73,0-.49,.47-.77,.77-.77,.43,0,.77,.27,.77,.77,0,.53-.47,.73-.77,.73Z"/><path class="cls-1" d="M55.94,57.57c0-1.41,1.46-2.06,1.86-2.79,.17-.3,.24-.62,.24-.91,0-1.09-.82-1.34-1.27-1.34-.89,0-1.25,.73-1.34,1.03-.06,.22-.31,.33-.57,.33-.3,0-.61-.17-.61-.53,0-.41,.68-1.94,2.51-1.94,1.31,0,2.44,.91,2.44,2.43,0,.36-.08,.74-.22,1.11-.4,1-1.86,1.57-1.86,2.58,0,.42-.32,.64-.62,.64s-.57-.2-.57-.61Zm.6,2.91c-.42,0-.77-.36-.77-.73,0-.49,.47-.77,.77-.77,.43,0,.77,.27,.77,.77,0,.53-.47,.73-.77,.73Z"/></g><circle class="cls-3" cx="40" cy="40" r="38"/><g><path class="cls-1" d="M39.94,20.47c-.36,0-.66,.11-.91,.34-.26,.22-.39,.49-.39,.83s.13,.63,.39,.85c.25,.22,.56,.34,.91,.34s.65-.11,.91-.34c.26-.22,.39-.51,.39-.85s-.13-.62-.39-.83c-.26-.22-.57-.34-.91-.34Z"/><path class="cls-1" d="M43.04,16.01c0-.68-.28-1.25-.83-1.7-.58-.49-1.32-.73-2.22-.73-1.03,0-1.87,.32-2.5,.97-.47,.49-.71,.93-.71,1.33,0,.25,.08,.45,.24,.6,.15,.16,.35,.24,.58,.24,.3,0,.57-.16,.8-.49,.25-.38,.44-.62,.58-.72,.25-.22,.59-.32,1.01-.32,.92,0,1.38,.3,1.38,.9,0,.26-.19,.51-.58,.73-.36,.19-.73,.38-1.11,.58-.38,.29-.57,.64-.57,1.05v.57c0,.26,.09,.47,.27,.61,.15,.12,.35,.17,.59,.17,.22,0,.41-.07,.57-.2,.17-.14,.25-.34,.25-.59,0-.17,.01-.28,.03-.34,.04-.08,.17-.18,.38-.29,.73-.42,1.15-.69,1.27-.81,.38-.37,.57-.9,.57-1.59Z"/><path class="cls-1" d="M35.14,24.97l-.46,.44c-1.12,1.07-3.09,1.97-4.3,1.97v1.69c1.68,0,3.7-.98,5-2.03,1.43,.71,3.01,1.08,4.62,1.08,5.74,0,10.4-4.67,10.4-10.4s-4.67-10.4-10.4-10.4-10.4,4.67-10.4,10.4c0,1.93,.53,3.81,1.54,5.45l1.44-.89c-.84-1.37-1.29-2.95-1.29-4.56,0-4.8,3.91-8.71,8.71-8.71s8.71,3.91,8.71,8.71-3.91,8.71-8.71,8.71c-1.51,0-3.01-.39-4.31-1.14l-.55-.31Z"/></g></g></g></g></svg>